<svg xmlns="http://www.w3.org/2000/svg" viewBox="0 0 300 400"><defs><linearGradient id="g" x1="0" y1="0" x2="0" y2="1"><stop offset="0" stop-color="#2b1055"/><stop offset="1" stop-color="#7597de"/></linearGradient></defs><rect width="300" height="400" fill="url(#g)"/><circle cx="220" cy="100" r="40" fill="#fff" opacity="0.15"/><polygon points="0,320 80,220 160,280 240,200 300,260 300,400 0,400" fill="#000" opacity="0.5"/><polygon points="0,360 60,300 140,350 220,280 300,330 300,400 0,400" fill="#000" opacity="0.7"/><g fill="#fff" opacity="0.9"><polygon points="100,150 105,165 120,165 108,174 113,190 100,180 87,190 92,174 80,165 95,165"/></g><text x="150" y="100" font-size="40" font-family="serif" text-anchor="middle" fill="#fff" font-weight="900" opacity="0.2">SWORD</text><text x="150" y="360" font-size="26" font-family="serif" text-anchor="middle" fill="#fff" font-weight="700">黎明之剑</text><text x="150" y="385" font-size="11" text-anchor="middle" fill="#fff" opacity="0.75">FANTASY · BATTLE</text></svg>